<svg width="144" height="87" viewBox="0 0 144 87" fill="none" xmlns="http://www.w3.org/2000/svg">
<g id="fid-logo-rs-eng 1" clip-path="url(#clip0_3747_12656)">
<path id="Vector" d="M200.293 33.6272C200.293 33.5894 200.293 33.5894 200.293 33.5894V33.5515C199.647 26.0953 192.882 20.645 185.167 21.137C177.945 21.5912 173.46 28.2148 168.786 30.5614C168.368 22.651 169.052 14.1728 169.356 10.3879C169.508 8.41975 169.432 8.26835 169.28 7.32213C168.976 5.50537 168.216 4.71054 167.797 3.99141C166.239 1.45553 162.857 0.206508 159.702 0.471451L111.624 11.107C105.999 12.3561 103.946 14.8162 103.566 19.888L100.868 69.6595C100.868 73.4444 103.3 75.1855 105.847 75.3747C106.227 75.4126 124.128 74.6934 130.893 74.2771C130.361 64.9284 121.277 62.6953 121.049 51.9462C120.859 42.6731 128.309 35.1412 137.392 35.0276C137.43 35.0276 137.43 35.0276 137.468 35.0276C137.506 35.0276 137.506 35.0276 137.544 35.0276C146.59 35.0655 153.773 42.5596 153.963 51.8326C154.153 61.5977 145.107 66.1396 144.309 73.6337C155.749 72.9524 162.21 72.9524 168.444 72.4225C170.8 72.2333 173.917 69.8488 173.46 66.1396C172.472 58.3427 170.496 50.9242 169.85 42.1433C174.905 43.6194 180.074 48.9561 187.371 48.237C195.048 47.5178 200.863 41.0835 200.293 33.6272Z" fill="#9E9E9E"/>
<path id="Vector_2" d="M144.347 76.2456C144.309 76.0942 144.271 76.0186 144.271 76.0186L133.173 76.5106C132.603 76.5484 132.147 77.0405 132.185 77.6082C132.223 78.1381 132.641 78.5544 133.135 78.6301L133.781 78.5923C134.351 78.5544 134.845 79.0086 134.883 79.5764C134.921 80.1441 134.465 80.6361 133.857 80.674L133.211 80.7118C133.211 80.7118 132.907 80.7118 132.755 80.7875C132.375 80.9389 132.147 81.3553 132.147 81.7716C132.147 82.1501 132.375 82.4529 132.641 82.6043C132.945 82.7935 133.705 82.7178 133.705 82.7178C134.275 82.68 134.769 83.1342 134.807 83.7398C134.807 84.1561 134.617 84.4967 134.313 84.686C134.009 84.9131 134.237 85.178 134.427 85.3294C135.606 86.1621 137.088 86.6541 138.722 86.6163C141.345 86.5784 143.397 84.9509 144.537 82.9828C144.537 82.9449 144.841 82.1501 144.803 81.3553C144.765 79.7278 144.347 76.2456 144.347 76.2456Z" fill="#A2A2A2"/>
<path id="Vector_3" d="M0.301758 48.729V38.8125H2.43013V48.729H0.301758Z" fill="#77787B"/>
<path id="Vector_4" d="M13.072 48.729H10.3736L6.0408 41.2348H5.96478C6.0408 42.5596 6.0788 43.5058 6.0788 44.0735V48.729H4.17847V38.8125H6.83894L11.1717 46.2309H11.2097C11.1337 44.944 11.0957 44.0357 11.0957 43.5058V38.8125H12.996V48.729H13.072Z" fill="#77787B"/>
<path id="Vector_5" d="M23.7139 48.729H21.0154L16.6826 41.2348H16.6066C16.6826 42.5596 16.7206 43.5058 16.7206 44.0735V48.729H14.8203V38.8125H17.4808L21.8135 46.2309H21.8516C21.7755 44.944 21.7375 44.0357 21.7375 43.5058V38.8125H23.6379V48.729H23.7139Z" fill="#77787B"/>
<path id="Vector_6" d="M34.5458 43.771C34.5458 45.3985 34.1277 46.6854 33.3296 47.5559C32.5314 48.4264 31.3532 48.8806 29.8329 48.8806C28.3127 48.8806 27.1345 48.4264 26.3363 47.5559C25.5002 46.6854 25.1201 45.3985 25.1201 43.771C25.1201 42.1056 25.5382 40.8566 26.3363 39.9861C27.1725 39.1156 28.3127 38.6992 29.871 38.6992C31.3912 38.6992 32.5694 39.1534 33.3676 40.0239C34.1277 40.8566 34.5458 42.1056 34.5458 43.771ZM27.2865 43.771C27.2865 44.8686 27.5145 45.7013 27.9326 46.269C28.3507 46.8368 28.9968 47.1017 29.8329 47.1017C31.5052 47.1017 32.3414 46.0041 32.3414 43.771C32.3414 41.5379 31.5052 40.4024 29.8329 40.4024C28.9968 40.4024 28.3507 40.6674 27.9326 41.2351C27.4765 41.8028 27.2865 42.6355 27.2865 43.771Z" fill="#77787B"/>
<path id="Vector_7" d="M41.5773 38.8125H43.7057L40.3231 48.729H38.0047L34.6221 38.8125H36.7885L38.6508 44.717C38.7648 45.0576 38.8788 45.4739 38.9928 45.9281C39.1069 46.3823 39.1829 46.723 39.1829 46.9122C39.2209 46.4959 39.4109 45.7767 39.677 44.717L41.5773 38.8125Z" fill="#77787B"/>
<path id="Vector_8" d="M50.3565 48.7292L49.6344 46.3826H46.0238L45.3016 48.7292H43.0212L46.5179 38.7749H49.1023L52.6369 48.7292H50.3565ZM49.1403 44.6037C48.4562 42.4463 48.1141 41.2729 48.0001 40.9701C47.9241 40.7052 47.8481 40.4781 47.8101 40.2889C47.6581 40.8566 47.24 42.2949 46.5179 44.5658H49.1403V44.6037Z" fill="#77787B"/>
<path id="Vector_9" d="M57.0461 48.729H54.9177V40.5536H52.2192V38.8125H59.7446V40.5536H57.0461V48.729Z" fill="#77787B"/>
<path id="Vector_10" d="M60.5806 48.729V38.8125H62.7089V48.729H60.5806Z" fill="#77787B"/>
<path id="Vector_11" d="M73.5407 43.771C73.5407 45.3985 73.1226 46.6854 72.3244 47.5559C71.5263 48.4264 70.3481 48.8806 68.8278 48.8806C67.3076 48.8806 66.1294 48.4264 65.3312 47.5559C64.4951 46.6854 64.115 45.3985 64.115 43.771C64.115 42.1056 64.5331 40.8566 65.3312 39.9861C66.1674 39.1156 67.3076 38.6992 68.8658 38.6992C70.3861 38.6992 71.5643 39.1534 72.3625 40.0239C73.1226 40.8566 73.5407 42.1056 73.5407 43.771ZM66.2814 43.771C66.2814 44.8686 66.5094 45.7013 66.9275 46.269C67.3456 46.8368 67.9917 47.1017 68.8278 47.1017C70.5001 47.1017 71.3363 46.0041 71.3363 43.771C71.3363 41.5379 70.5001 40.4024 68.8278 40.4024C67.9917 40.4024 67.3456 40.6674 66.9275 41.2351C66.4714 41.8028 66.2814 42.6355 66.2814 43.771Z" fill="#77787B"/>
<path id="Vector_12" d="M83.7266 48.729H81.0281L76.6953 41.2348H76.6193C76.6953 42.5596 76.7333 43.5058 76.7333 44.0735V48.729H74.833V38.8125H77.4935L81.8262 46.2309H81.8642C81.7882 44.944 81.7502 44.0357 81.7502 43.5058V38.8125H83.6506V48.729H83.7266Z" fill="#77787B"/>
<path id="Vector_13" d="M50.5469 63.6796H48.4565V53.7632H54.1575V55.5042H50.5469V58.078H53.9295V59.7812H50.5469V63.6796Z" fill="#77787B"/>
<path id="Vector_14" d="M63.545 53.7629V60.1973C63.545 60.9164 63.393 61.5599 63.0509 62.1276C62.7088 62.6953 62.2528 63.1117 61.6066 63.3766C60.9985 63.6794 60.2384 63.8308 59.4022 63.8308C58.11 63.8308 57.1218 63.4902 56.4377 62.8467C55.7156 62.2033 55.3735 61.2949 55.3735 60.1594V53.7629H57.4639V59.8188C57.4639 60.5758 57.6159 61.1435 57.92 61.4842C58.224 61.8248 58.7561 62.014 59.4403 62.014C60.1244 62.014 60.6185 61.8248 60.9225 61.4842C61.2266 61.1057 61.3786 60.5758 61.3786 59.7809V53.7251H63.545V53.7629Z" fill="#77787B"/>
<path id="Vector_15" d="M74.1111 63.6796H71.4126L67.0799 56.1855H67.0038C67.0799 57.5102 67.1179 58.4565 67.1179 59.0242V63.6796H65.2175V53.7632H67.878L72.2108 61.1816H72.2488C72.1728 59.8947 72.1347 58.9864 72.1347 58.4565V53.7632H74.0351V63.6796H74.1111Z" fill="#77787B"/>
<path id="Vector_16" d="M84.1828 58.6457C84.1828 60.2732 83.7267 61.5222 82.7765 62.3928C81.8263 63.2633 80.4961 63.6796 78.7478 63.6796H75.9353V53.7632H79.0519C80.6861 53.7632 81.9404 54.1795 82.8525 55.05C83.7267 55.9206 84.1828 57.0939 84.1828 58.6457ZM81.9784 58.6836C81.9784 56.564 81.0282 55.5042 79.1279 55.5042H77.9877V61.9764H78.8998C80.9522 61.9386 81.9784 60.8788 81.9784 58.6836Z" fill="#77787B"/>
<g id="Group">
<path id="Vector_17" d="M2.04984 29.3121V31.6209H1.36572V26.0571H2.88599C3.57011 26.0571 4.0642 26.1707 4.40626 26.4356C4.74832 26.7006 4.90035 27.0791 4.90035 27.6089C4.90035 28.3281 4.52028 28.858 3.76015 29.1229L5.28041 31.6209H4.52028L3.15204 29.3121H2.04984ZM2.04984 28.7444H2.924C3.38008 28.7444 3.72214 28.6687 3.95018 28.4795C4.17822 28.2902 4.25423 28.0253 4.25423 27.6468C4.25423 27.2683 4.14021 27.0034 3.91217 26.852C3.68413 26.7006 3.34207 26.6249 2.84798 26.6249H2.04984V28.7444Z" fill="#A2A2A2"/>
<path id="Vector_18" d="M9.76523 31.6209H6.64868V26.0571H9.76523V26.6249H7.2948V28.4038H9.6132V28.9715H7.2948V31.0532H9.76523V31.6209Z" fill="#A2A2A2"/>
<path id="Vector_19" d="M14.934 27.6846C14.934 28.2524 14.744 28.6687 14.3639 28.9715C13.9839 29.2743 13.4138 29.4257 12.6916 29.4257H12.0455V31.6209H11.3994V26.0571H12.8437C14.2499 26.0571 14.934 26.587 14.934 27.6846ZM12.0455 28.858H12.6156C13.1857 28.858 13.6038 28.7823 13.8699 28.593C14.1359 28.4038 14.2499 28.101 14.2499 27.6846C14.2499 27.3061 14.1359 27.0412 13.8699 26.852C13.6418 26.6627 13.2617 26.587 12.7296 26.587H12.0075V28.858H12.0455Z" fill="#A2A2A2"/>
<path id="Vector_20" d="M20.7493 26.0564V29.6521C20.7493 30.2955 20.5593 30.7875 20.1792 31.166C19.7992 31.5445 19.2671 31.6959 18.583 31.6959C17.8988 31.6959 17.4048 31.5067 17.0247 31.1282C16.6446 30.7497 16.4546 30.2576 16.4546 29.6142V26.0186H17.1007V29.6521C17.1007 30.1063 17.2147 30.4847 17.4808 30.7118C17.7468 30.9768 18.1269 31.0903 18.621 31.0903C19.0771 31.0903 19.4571 30.9768 19.7232 30.7118C19.9892 30.4469 20.1032 30.1063 20.1032 29.6521V26.0186H20.7493V26.0564Z" fill="#A2A2A2"/>
<path id="Vector_21" d="M22.6116 26.0571H24.2079C24.968 26.0571 25.5001 26.1707 25.8041 26.3978C26.1462 26.6249 26.2982 26.9655 26.2982 27.4575C26.2982 27.7982 26.2222 28.0631 26.0322 28.2902C25.8421 28.5173 25.5761 28.6309 25.234 28.7066V28.7444C26.0702 28.8958 26.5263 29.35 26.5263 30.0691C26.5263 30.5612 26.3742 30.9397 26.0322 31.2424C25.6901 31.5074 25.234 31.6588 24.6259 31.6588H22.6876V26.0571H22.6116ZM23.2577 28.4416H24.3219C24.778 28.4416 25.12 28.3659 25.31 28.2145C25.5001 28.0631 25.6141 27.836 25.6141 27.4954C25.6141 27.1926 25.5001 26.9655 25.272 26.8141C25.044 26.6627 24.7019 26.6249 24.2079 26.6249H23.2577V28.4416ZM23.2577 28.9715V31.0532H24.4359C24.892 31.0532 25.234 30.9775 25.4621 30.7883C25.6901 30.599 25.8041 30.3341 25.8041 29.9556C25.8041 29.6149 25.6901 29.35 25.4621 29.1986C25.234 29.0472 24.854 28.9715 24.3979 28.9715H23.2577Z" fill="#A2A2A2"/>
<path id="Vector_22" d="M28.0847 31.6209V26.0571H28.7308V31.0532H31.2013V31.6588H28.0847V31.6209Z" fill="#A2A2A2"/>
<path id="Vector_23" d="M32.5312 31.6209V26.0571H33.1774V31.6209H32.5312Z" fill="#A2A2A2"/>
<path id="Vector_24" d="M37.5103 26.5487C36.9022 26.5487 36.4081 26.7379 36.0661 27.1543C35.724 27.5706 35.534 28.1384 35.534 28.8196C35.534 29.5388 35.724 30.1065 36.0661 30.5228C36.4081 30.9013 36.9022 31.1284 37.5483 31.1284C37.9284 31.1284 38.3845 31.0527 38.8786 30.9013V31.4691C38.4985 31.6205 38.0044 31.6962 37.4343 31.6962C36.5982 31.6962 35.9901 31.4312 35.534 30.9392C35.0779 30.4471 34.8499 29.728 34.8499 28.8196C34.8499 28.2519 34.9639 27.7599 35.1919 27.3057C35.42 26.8893 35.724 26.5487 36.1421 26.3216C36.5602 26.0945 37.0162 25.981 37.5863 25.981C38.1564 25.981 38.6885 26.0945 39.1446 26.2838L38.8786 26.8515C38.3845 26.6622 37.9664 26.5487 37.5103 26.5487Z" fill="#A2A2A2"/>
<path id="Vector_25" d="M47.7719 28.8199C47.7719 29.7283 47.5439 30.4095 47.0878 30.9394C46.6317 31.4693 45.9856 31.6964 45.1875 31.6964C44.3513 31.6964 43.7432 31.4315 43.2871 30.9394C42.8311 30.4474 42.603 29.7283 42.603 28.8199C42.603 27.9115 42.8311 27.1924 43.2871 26.7003C43.7432 26.2083 44.3893 25.9434 45.1875 25.9434C45.9856 25.9434 46.6317 26.2083 47.0878 26.7003C47.5439 27.2302 47.7719 27.9494 47.7719 28.8199ZM43.2871 28.8199C43.2871 29.5769 43.4392 30.1446 43.7812 30.5231C44.1233 30.9016 44.5794 31.0908 45.1875 31.0908C45.7956 31.0908 46.2897 30.9016 46.5937 30.5231C46.8978 30.1446 47.0878 29.5769 47.0878 28.8199C47.0878 28.0629 46.9358 27.4952 46.6317 27.1167C46.3277 26.7382 45.8336 26.5489 45.2255 26.5489C44.6174 26.5489 44.1233 26.7382 43.8192 27.1167C43.4772 27.533 43.2871 28.1008 43.2871 28.8199Z" fill="#A2A2A2"/>
<path id="Vector_26" d="M50.0526 31.6209H49.4065V26.0571H52.523V26.6249H50.0526V28.6687H52.371V29.2364H50.0526V31.6209Z" fill="#A2A2A2"/>
<path id="Vector_27" d="M59.4402 30.1446C59.4402 30.6366 59.2502 31.0151 58.9081 31.2801C58.5661 31.545 58.072 31.6964 57.4639 31.6964C56.8178 31.6964 56.2857 31.6207 55.9436 31.4315V30.788C56.1716 30.9016 56.4377 30.9773 56.7037 31.0151C56.9698 31.053 57.2358 31.0908 57.5019 31.0908C57.92 31.0908 58.262 31.0151 58.4901 30.8259C58.7181 30.6745 58.8321 30.4474 58.8321 30.1446C58.8321 29.9554 58.7941 29.804 58.7181 29.6526C58.6421 29.539 58.5281 29.4255 58.338 29.3119C58.148 29.1984 57.8819 29.0848 57.5019 28.9713C56.9698 28.782 56.5897 28.5549 56.3997 28.3279C56.1716 28.0629 56.0576 27.7601 56.0576 27.3438C56.0576 26.9274 56.2097 26.5868 56.5517 26.3218C56.8938 26.0569 57.3118 25.9434 57.8439 25.9434C58.414 25.9434 58.9081 26.0569 59.3642 26.2462L59.1742 26.8139C58.7181 26.6246 58.262 26.5111 57.8439 26.5111C57.5019 26.5111 57.2358 26.5868 57.0458 26.7382C56.8558 26.8896 56.7417 27.0788 56.7417 27.3438C56.7417 27.533 56.7798 27.6844 56.8558 27.8358C56.9318 27.9494 57.0458 28.0629 57.2358 28.1765C57.3879 28.29 57.6539 28.4035 58.034 28.5171C58.6041 28.7063 59.0222 28.9334 59.2502 29.1984C59.3262 29.4633 59.4402 29.7661 59.4402 30.1446Z" fill="#A2A2A2"/>
<path id="Vector_28" d="M64.1151 31.6209H60.9985V26.0571H64.1151V26.6249H61.6446V28.4038H63.9631V28.9715H61.6446V31.0532H64.1151V31.6209Z" fill="#A2A2A2"/>
<path id="Vector_29" d="M66.3956 29.3121V31.6209H65.7495V26.0571H67.2698C67.9539 26.0571 68.448 26.1707 68.79 26.4356C69.1321 26.7006 69.2841 27.0791 69.2841 27.6089C69.2841 28.3281 68.9041 28.858 68.1439 29.1229L69.6642 31.6209H68.9041L67.5358 29.3121H66.3956ZM66.3956 28.7444H67.2698C67.7259 28.7444 68.0679 28.6687 68.296 28.4795C68.524 28.2902 68.6 28.0253 68.6 27.6468C68.6 27.2683 68.486 27.0034 68.258 26.852C68.0299 26.7006 67.6879 26.6249 67.1938 26.6249H66.3576V28.7444H66.3956Z" fill="#A2A2A2"/>
<path id="Vector_30" d="M70.9941 26.0571H72.5904C73.3506 26.0571 73.8826 26.1707 74.1867 26.3978C74.5288 26.6249 74.6808 26.9655 74.6808 27.4575C74.6808 27.7982 74.6048 28.0631 74.4147 28.2902C74.2247 28.5173 73.9587 28.6309 73.6166 28.7066V28.7444C74.4527 28.8958 74.9088 29.35 74.9088 30.0691C74.9088 30.5612 74.7568 30.9397 74.4147 31.2424C74.0727 31.5074 73.6166 31.6588 73.0085 31.6588H70.9941V26.0571ZM71.6403 28.4416H72.7044C73.1605 28.4416 73.5026 28.3659 73.6926 28.2145C73.8827 28.0631 73.9967 27.836 73.9967 27.4954C73.9967 27.1926 73.8827 26.9655 73.6546 26.8141C73.4266 26.6627 73.0845 26.6249 72.5904 26.6249H71.6403V28.4416ZM71.6403 28.9715V31.0532H72.8185C73.2745 31.0532 73.6166 30.9775 73.8446 30.7883C74.0727 30.599 74.1867 30.3341 74.1867 29.9556C74.1867 29.6149 74.0727 29.35 73.8446 29.1986C73.6166 29.0472 73.2365 28.9715 72.7805 28.9715H71.6403Z" fill="#A2A2A2"/>
<path id="Vector_31" d="M76.467 31.6209V26.0571H77.1132V31.6209H76.467Z" fill="#A2A2A2"/>
<path id="Vector_32" d="M82.5483 31.6202L81.8641 29.8413H79.6217L78.9376 31.6202H78.2915L80.4959 26.0186H81.028L83.2324 31.6202H82.5483ZM81.6741 29.2736L81.028 27.5325C80.952 27.3054 80.838 27.0405 80.7619 26.7377C80.7239 26.9648 80.6099 27.2676 80.5339 27.5325L79.8878 29.2736H81.6741Z" fill="#A2A2A2"/>
</g>
</g>
<defs>
<clipPath id="clip0_3747_12656">
<rect width="200.029" height="86.258" fill="white" transform="translate(0.301758 0.395996)"/>
</clipPath>
</defs>
</svg>
